<svg xmlns="http://www.w3.org/2000/svg" xmlns:xlink="http://www.w3.org/1999/xlink" width="1114" height="919" viewBox="0 0 1114 919">
  <defs>
    <clipPath id="clip-path">
      <rect id="Rectangle_28" data-name="Rectangle 28" width="1114" height="919" transform="translate(806 162)" fill="#fff" stroke="#707070" stroke-width="1"/>
    </clipPath>
  </defs>
  <g id="Mask_Group_4" data-name="Mask Group 4" transform="translate(-806 -162)" clip-path="url(#clip-path)">
    <g id="background-element" transform="translate(84 -7)" opacity="0.13">
      <path id="Shape" d="M0,106.557V36.262a36.143,36.143,0,0,1,72.286,0v140.59a36.143,36.143,0,1,1-72.286,0V159.864" transform="translate(1357.893 260.031)" fill="none" stroke="#7d112f" stroke-linejoin="round" stroke-miterlimit="10" stroke-width="30" opacity="0.71"/>
      <path id="Shape-2" data-name="Shape" d="M0,0V182.92a99.394,99.394,0,0,0,198.788,0V139.7" transform="translate(1290.425 270.808)" fill="none" stroke="#b4c967" stroke-linejoin="round" stroke-miterlimit="10" stroke-width="30" opacity="0.71"/>
      <path id="Shape-3" data-name="Shape" d="M0,0V66.254a86.746,86.746,0,0,0,86.752,86.752" transform="translate(1083.204 688.865)" fill="none" stroke="#b4c967" stroke-linejoin="round" stroke-miterlimit="10" stroke-width="30" opacity="0.71"/>
      <path id="Shape-4" data-name="Shape" d="M85.539,327.7V85.78A85.659,85.659,0,0,0,0,0" transform="translate(1133.805 369.6)" fill="none" stroke="#7d112f" stroke-linejoin="round" stroke-miterlimit="10" stroke-width="30" opacity="0.71"/>
      <path id="Shape-5" data-name="Shape" d="M45.179,0A45.179,45.179,0,1,0,90.358,45.179V0" transform="translate(1796.43 334.661)" fill="none" stroke="#003635" stroke-linejoin="round" stroke-miterlimit="10" stroke-width="30" opacity="0.71"/>
      <path id="Shape-6" data-name="Shape" d="M216.859,0A108.43,108.43,0,0,1,108.43,108.43,108.43,108.43,0,0,1,0,0" transform="translate(821.768 569.592)" fill="none" stroke="#7d112f" stroke-linejoin="round" stroke-miterlimit="10" stroke-width="30" opacity="0.71"/>
      <path id="Shape-7" data-name="Shape" d="M93.972,179.511V46.986A46.986,46.986,0,1,0,0,46.986V67.5" transform="translate(1038.628 444.296)" fill="none" stroke="#003635" stroke-linejoin="round" stroke-miterlimit="10" stroke-width="30" opacity="0.71"/>
      <ellipse id="Shape-8" data-name="Shape" cx="32.529" cy="31.927" rx="32.529" ry="31.927" transform="translate(821.768 733.441)" fill="none" stroke="#003635" stroke-linejoin="round" stroke-miterlimit="10" stroke-width="30" opacity="0.71"/>
      <path id="Shape-9" data-name="Shape" d="M0,179.879V46.812a46.986,46.986,0,1,1,93.972,0V179.879a46.986,46.986,0,1,1-93.972,0Z" transform="translate(882.007 369.503)" fill="none" stroke="#e19926" stroke-linejoin="round" stroke-miterlimit="10" stroke-width="30" opacity="0.71"/>
      <path id="Shape-10" data-name="Shape" d="M227.7,0H121.592A121.639,121.639,0,0,0,0,121.682" transform="translate(1730.168 623.807)" fill="none" stroke="#7d112f" stroke-linejoin="round" stroke-miterlimit="10" stroke-width="30" opacity="0.71"/>
      <path id="Shape-11" data-name="Shape" d="M98.894,50a49.722,49.722,0,0,1-49.448,50A49.722,49.722,0,0,1,0,50,49.722,49.722,0,0,1,49.447,0h158.98" transform="translate(1307.292 740.67)" fill="none" stroke="#7d112f" stroke-linejoin="round" stroke-miterlimit="10" stroke-width="30" opacity="0.71"/>
      <path id="Shape-12" data-name="Shape" d="M0,106.557V36.262a36.143,36.143,0,0,1,72.286,0v140.59a36.143,36.143,0,1,1-72.286,0V159.864" transform="translate(1579.571 791.336)" fill="none" stroke="#e19926" stroke-linejoin="round" stroke-miterlimit="10" stroke-width="30" opacity="0.71"/>
      <path id="Shape-13" data-name="Shape" d="M0,0V182.92a99.394,99.394,0,0,0,198.788,0V139.7" transform="translate(1516.923 791.271)" fill="none" stroke="#b4c967" stroke-linejoin="round" stroke-miterlimit="10" stroke-width="30" opacity="0.71"/>
      <path id="Shape-14" data-name="Shape" d="M120.478,0H68.311A68.489,68.489,0,0,0,0,68.672" transform="translate(1412.107 628.626)" fill="none" stroke="#003635" stroke-linejoin="round" stroke-miterlimit="10" stroke-width="30" opacity="0.71"/>
      <path id="Shape-15" data-name="Shape" d="M162.645,37.617V53.5a40.817,40.817,0,1,1-81.635,0V40.344A40.505,40.505,0,1,0,0,40.344V56.535" transform="translate(1715.71 806.843)" fill="none" stroke="#b4c967" stroke-linejoin="round" stroke-miterlimit="10" stroke-width="30" opacity="0.71"/>
      <path id="Shape-16" data-name="Shape" d="M.365,0l.07,36.143" transform="translate(1218.342 822.595)" fill="none" stroke="#b4c967" stroke-linejoin="round" stroke-miterlimit="10" stroke-width="30" opacity="0.71"/>
      <path id="Shape-17" data-name="Shape" d="M.365,0l.07,36.143" transform="translate(1577.364 440.681)" fill="none" stroke="#b4c967" stroke-linejoin="round" stroke-miterlimit="10" stroke-width="30" opacity="0.71"/>
      <path id="Shape-18" data-name="Shape" d="M.365,0l.07,36.143" transform="translate(1577.364 372.009)" fill="none" stroke="#003635" stroke-linejoin="round" stroke-miterlimit="10" stroke-width="30" opacity="0.71"/>
      <path id="Shape-19" data-name="Shape" d="M120.42,201.853C53.912,201.853,0,142.525,0,69.328A141.9,141.9,0,0,1,17.772,0" transform="translate(1715.71 311.115)" fill="none" stroke="#e19926" stroke-linejoin="round" stroke-miterlimit="10" stroke-width="30" opacity="0.71"/>
      <path id="Shape-20" data-name="Shape" d="M0,226.5V122.791C0,63.077,46.795,13.056,109.634,0" transform="translate(1794.039 985.787)" fill="none" stroke="#7d112f" stroke-linejoin="round" stroke-miterlimit="10" stroke-width="30" opacity="0.71"/>
      <path id="Shape-21" data-name="Shape" d="M74.249,0c0,20.777-16.621,37.62-37.125,37.62S0,20.777,0,0" transform="translate(1575.523 638.317)" fill="none" stroke="#e19926" stroke-linejoin="round" stroke-miterlimit="10" stroke-width="30" opacity="0.71"/>
      <path id="Shape-22" data-name="Shape" d="M37.125,74.249A37.125,37.125,0,1,0,0,37.125V74.249" transform="translate(1649.773 523.478)" fill="none" stroke="#7d112f" stroke-linejoin="round" stroke-miterlimit="10" stroke-width="30" opacity="0.71"/>
      <path id="Shape-23" data-name="Shape" d="M0,0H251.212c49.177-.014,89.055,35,89.071,78.209" transform="translate(1539 200.998)" fill="none" stroke="#003635" stroke-linejoin="round" stroke-miterlimit="10" stroke-width="30" opacity="0.71"/>
      <path id="Shape-24" data-name="Shape" d="M46.9,43.065c.192,23.575,22.065,42.565,48.9,42.452s48.5-19.285,48.434-42.86S122.392,0,95.56,0H0" transform="translate(1506.015 252.478)" fill="none" stroke="#e19926" stroke-linejoin="round" stroke-miterlimit="10" stroke-width="30" opacity="0.71"/>
      <ellipse id="Shape-25" data-name="Shape" cx="41.085" cy="40.59" rx="41.085" ry="40.59" transform="translate(1340.711 943.361)" fill="none" stroke="#7d112f" stroke-linejoin="round" stroke-miterlimit="10" stroke-width="23.236" opacity="0.71"/>
      <path id="Shape-26" data-name="Shape" d="M179.189,91.079C179.189,40.781,139.076,0,89.594,0S0,40.781,0,91.079s40.113,91.079,89.594,91.079" transform="translate(1289.232 891.881)" fill="none" stroke="#003635" stroke-linejoin="round" stroke-miterlimit="10" stroke-width="23.236" opacity="0.71"/>
    </g>
  </g>
</svg>
