<svg xmlns="http://www.w3.org/2000/svg" xmlns:xlink="http://www.w3.org/1999/xlink" width="219.267" height="44" viewBox="0 0 219.267 44">
  <defs>
    <clipPath id="clip-path">
      <rect id="Rectangle_20" data-name="Rectangle 20" width="219.267" height="44" transform="translate(0 0)" fill="none"/>
    </clipPath>
  </defs>
  <g id="logo" transform="translate(1113 923)">
    <g id="Group_33" data-name="Group 33" transform="translate(-1113 -923)" clip-path="url(#clip-path)">
      <path id="Path_63" data-name="Path 63" d="M41.383,22.139c-.967.305-1.84.61-2.73.857A43.683,43.683,0,0,1,25,24.347a38.008,38.008,0,0,1-10.331-1.772c-.042-.014-.086-.022-.128-.037-1.287-.441-1.287-.441-1.287.952q0,9.593,0,19.186c0,.883,0,.885-.875.887-.533,0-1.067-.023-1.6.006-.505.028-.685-.191-.64-.669.019-.2,0-.4,0-.6q0-10.426.01-20.852a1.3,1.3,0,0,0-.692-1.288A18.4,18.4,0,0,1,.606,7.455C.217,5.4.2,3.27.006,1.175-.042.661.195.535.666.536c3.975.012,7.95.017,11.925,0,.615,0,.668.292.667.78-.01,5.463.007,10.926-.023,16.388a1.178,1.178,0,0,0,.889,1.3,37.659,37.659,0,0,0,16.5,2.145,32.67,32.67,0,0,0,10.1-2.188,1.021,1.021,0,0,0,.74-1.133c-.021-5.463-.013-10.925-.012-16.388,0-.892,0-.9.87-.9C46.162.542,50,.558,53.845.528c.684-.006.858.209.86.873a23.85,23.85,0,0,1-2.379,11.281,18.354,18.354,0,0,1-6.808,7.313,1.763,1.763,0,0,0-.96,1.742c.033,6.973.019,13.946.019,20.918,0,.907,0,.907-.908.909-.511,0-1.023-.023-1.532.006s-.705-.16-.7-.688c.027-1.509.009-3.02.009-4.53q0-7.661,0-15.322c0-.277-.039-.553-.064-.891m3.243-5.5a1.016,1.016,0,0,0,.268-.047,3.831,3.831,0,0,0,.38-.267A16.325,16.325,0,0,0,51.445,4.2c.04-.488-.211-.553-.6-.552-1.818.006-3.637.026-5.455-.011-.644-.013-.832.2-.828.838.025,3.814.012,7.628.014,11.442,0,.233.03.466.047.716M9.877,16.73l.235-.153c.01-.214.027-.429.028-.643,0-.977,0-1.955,0-2.932q0-4.3,0-8.6c0-.359.042-.748-.5-.748H3.709c-.324,0-.482.127-.451.489a16.881,16.881,0,0,0,4.21,10.344c.737.806,1.6,1.495,2.41,2.237" transform="translate(0 -0.235)" fill="#003635"/>
      <path id="Path_64" data-name="Path 64" d="M292.324,51.283l-6.62,12.3-6.664-12.368-.18.044c-.01.227-.029.454-.029.681,0,3.4-.015,6.794.012,10.191,0,.615-.181.843-.792.789-.463-.041-.932-.007-1.4-.008-.926,0-.928,0-.928-.907q0-6.094,0-12.188c0-1.665.017-3.331-.008-5-.009-.55.2-.662.727-.74,1.649-.244,2.549.365,3.3,1.913,1.71,3.529,3.674,6.935,5.537,10.389.113.209.25.405.433.7.212-.362.385-.637.539-.923,2.052-3.806,4.112-7.609,6.141-11.427a1.007,1.007,0,0,1,1.09-.636,10.056,10.056,0,0,0,1.53,0c.535-.041.682.18.68.689-.016,3.242-.008,6.483-.008,9.724,0,2.553-.017,5.106.012,7.66.007.584-.163.8-.752.752a11.4,11.4,0,0,0-1.664,0c-.551.036-.729-.175-.725-.725.019-3.33.011-6.66.007-9.99,0-.294-.038-.588-.058-.882l-.177-.036" transform="translate(-122.613 -19.579)" fill="#003635"/>
      <path id="Path_65" data-name="Path 65" d="M317.113,19.372A9.682,9.682,0,1,1,327.042,9.7a9.669,9.669,0,0,1-9.929,9.668m6.629-9.653a6.649,6.649,0,1,0-13.3,0,6.648,6.648,0,1,0,13.3,0" transform="translate(-136.594 -0.007)" fill="#003635"/>
      <path id="Path_66" data-name="Path 66" d="M217.944,53.522c0-2.863.017-5.726-.014-8.588-.007-.625.2-.806.8-.787,2.3.07,4.625-.051,6.91.186a9.117,9.117,0,0,1,7.391,6.885,9.385,9.385,0,0,1-7.467,11.565,15.989,15.989,0,0,1-2.983.172c-1.309.026-2.619-.014-3.927.016-.55.012-.726-.176-.722-.728.022-2.907.011-5.814.011-8.721m3.127,0c0,1.93.013,3.859-.009,5.788-.006.485.134.679.64.655.819-.039,1.642.008,2.461-.032a6.074,6.074,0,0,0,5.663-4.79,6.218,6.218,0,0,0-3.128-7.215,10.359,10.359,0,0,0-4.93-.8c-.57,0-.713.206-.706.738.024,1.885.009,3.77.009,5.655" transform="translate(-96.916 -19.632)" fill="#003635"/>
      <path id="Path_67" data-name="Path 67" d="M121.111,19.343c-1,0-1.882.017-2.765-.018-.135-.006-.3-.237-.379-.4a1.129,1.129,0,0,1-.016-.46q0-8.528,0-17.056c0-.865,0-.865.889-.867.533,0,1.068.028,1.6-.008s.691.144.684.677c-.028,2.065.009,4.131-.023,6.2-.01.615.134.858.8.847,2.309-.039,4.619-.033,6.928,0,.622.008.8-.2.8-.81-.03-2.042.012-4.086-.025-6.129-.011-.63.2-.825.8-.78a16.222,16.222,0,0,0,1.731,0c.425-.014.626.152.587.585-.008.088,0,.178,0,.267,0,5.707-.011,11.415.014,17.122,0,.681-.2.92-.869.845a6.493,6.493,0,0,0-1.4,0c-.662.072-.886-.143-.871-.837.044-2.153,0-4.308.029-6.462.009-.623-.15-.855-.812-.845-2.331.036-4.663.028-6.995,0-.541-.006-.731.142-.724.707.03,2.176.012,4.352.012,6.529Z" transform="translate(-52.447 -0.234)" fill="#003635"/>
      <path id="Path_68" data-name="Path 68" d="M199.458,62.943c-1.122,0-2.135.027-3.143-.026-.169-.009-.379-.335-.47-.556-.4-.962-.777-1.934-1.126-2.916a.819.819,0,0,0-.906-.653c-2.176.032-4.352.026-6.528,0a.745.745,0,0,0-.828.569c-.361,1-.772,1.983-1.137,2.983a.781.781,0,0,1-.869.623c-.88-.041-1.763-.011-2.756-.011.113-.335.175-.558.262-.771q3.529-8.689,7.054-17.38a.9.9,0,0,1,.981-.667c1.855.017,1.859-.007,2.548,1.691q3.368,8.288,6.729,16.578c.049.122.088.247.189.534m-6.152-7.078-2.652-6.852-.178.024-2.634,6.828Z" transform="translate(-80.802 -19.629)" fill="#003635"/>
      <path id="Path_69" data-name="Path 69" d="M133.023,62.943c-1.132,0-2.123.022-3.111-.022-.163-.007-.378-.277-.459-.471q-.638-1.534-1.21-3.095a.75.75,0,0,0-.833-.565q-3.262.035-6.525,0a.781.781,0,0,0-.879.594c-.353,1-.788,1.977-1.138,2.98a.779.779,0,0,1-.886.6c-.877-.027-1.756-.008-2.766-.008.469-1.162.878-2.181,1.292-3.2,2-4.928,4.012-9.852,5.993-14.788a1.078,1.078,0,0,1,1.2-.834c2.117.1,1.54-.363,2.342,1.588,2.258,5.493,4.477,11,6.71,16.5.073.18.138.365.268.715m-6.152-7.067-2.659-6.858-.194.041L121.4,55.877Z" transform="translate(-51.237 -19.626)" fill="#003635"/>
      <path id="Path_70" data-name="Path 70" d="M166.333,7.209c0,1.755.016,3.509,0,5.264a7.073,7.073,0,0,1-7.039,7.123c-3.492.1-6.173-1.482-7.329-4.442a7.963,7.963,0,0,1-.53-2.72c-.058-3.73-.014-7.462-.038-11.194,0-.572.2-.737.736-.705a13.149,13.149,0,0,0,1.731,0c.575-.042.707.2.7.735-.018,3.353-.028,6.708.006,10.061a8.455,8.455,0,0,0,.318,2.424,4.044,4.044,0,0,0,4.624,2.835,4.13,4.13,0,0,0,3.592-3.733,23.183,23.183,0,0,0,.1-2.593c.011-2.976.019-5.953-.008-8.928,0-.607.17-.851.791-.8a10.162,10.162,0,0,0,1.6,0c.576-.045.776.147.766.745-.034,1.976-.013,3.953-.013,5.93Z" transform="translate(-67.327 -0.234)" fill="#003635"/>
      <path id="Path_71" data-name="Path 71" d="M185.218,13.2h.067c.442.016.976-.112,1.3.093.257.163.265.73.37,1.121a2.6,2.6,0,0,0,2.206,2.036,3.362,3.362,0,0,0,3.354-.95,1.9,1.9,0,0,0-.277-2.878,18.521,18.521,0,0,0-2.646-1.362c-1.02-.483-2.1-.848-3.076-1.41A4.827,4.827,0,0,1,183.982,5,5.022,5.022,0,0,1,187.451.463,6.747,6.747,0,0,1,192.02.339a5.727,5.727,0,0,1,3.861,5.507c.016.358-.149.465-.478.459-.644-.012-1.288-.019-1.932,0-.4.014-.548-.181-.614-.538a5.607,5.607,0,0,0-.267-1.026,3,3,0,0,0-4.373-1.488,2.225,2.225,0,0,0-.077,3.854A38.071,38.071,0,0,0,191.8,8.681a13.493,13.493,0,0,1,1.9.955,4.886,4.886,0,0,1,2.429,4.777,5,5,0,0,1-3.391,4.457,7.4,7.4,0,0,1-5.591,0c-2.45-.969-3.28-3.051-3.478-5.166-.036-.383.12-.523.49-.506.354.016.71,0,1.066,0" transform="translate(-81.675 0)" fill="#003635"/>
      <path id="Path_72" data-name="Path 72" d="M348.893,13.294c.465,0,1.039-.164,1.363.049.289.191.316.8.435,1.225a2.618,2.618,0,0,0,2.4,1.982,3.244,3.244,0,0,0,3.187-1.07,1.877,1.877,0,0,0-.316-2.777,19.666,19.666,0,0,0-2.7-1.394,33.594,33.594,0,0,1-3.178-1.5,4.969,4.969,0,0,1-2.28-5.637,5.313,5.313,0,0,1,4.4-3.929,9.183,9.183,0,0,1,3.161.074c3.042.731,4.094,3.305,4.214,5.557.021.391-.155.5-.513.494a14.472,14.472,0,0,0-1.6.006c-.6.048-.854-.144-.959-.773A2.945,2.945,0,0,0,354.6,3.086a2.769,2.769,0,0,0-3.722,1.67,1.988,1.988,0,0,0,.991,2.445c.992.528,2.075.884,3.107,1.339a18.861,18.861,0,0,1,2.393,1.145,4.854,4.854,0,0,1,2.453,4.825,5,5,0,0,1-3.418,4.434,7.432,7.432,0,0,1-5.467.018c-2.555-.963-3.391-3.151-3.569-5.235-.03-.353.122-.483.459-.471.355.013.71,0,1.066,0v.034" transform="translate(-154.477 -0.064)" fill="#003635"/>
      <path id="Path_73" data-name="Path 73" d="M267.7,3.545h-2.344c-1.354,0-2.708.014-4.062-.006-.461-.007-.625.153-.616.616.024,1.176.027,2.353,0,3.529-.012.5.169.652.656.647,1.886-.021,3.774.011,5.66-.019.55-.008.75.15.717.711-.043.727-.011,1.458-.011,2.259-.319.017-.577.041-.835.042-1.82,0-3.641.018-5.461-.007-.549-.008-.742.178-.728.73.031,1.22.026,2.442,0,3.662-.01.49.165.664.656.66,1.909-.018,3.818.007,5.727-.016.49-.006.672.137.648.64-.037.75-.009,1.5-.009,2.314-.273.017-.486.043-.7.043-2.908,0-5.816-.014-8.724.015-.6.007-.744-.2-.742-.766q.027-8.657,0-17.314c0-.6.21-.752.774-.748q4.362.032,8.724,0c.524,0,.707.155.679.683-.039.727-.01,1.459-.01,2.326" transform="translate(-114.527 -0.239)" fill="#003635"/>
      <path id="Path_74" data-name="Path 74" d="M251.549,53.575c0-2.886.012-5.773-.011-8.659,0-.566.144-.779.746-.774q4.33.041,8.659,0c.545,0,.767.156.726.717a11.029,11.029,0,0,0,0,1.6c.037.526-.153.7-.681.69-1.82-.027-3.642.015-5.461-.023-.661-.014-.917.174-.885.861.048,1.064.039,2.132,0,3.2-.021.6.165.823.793.811,1.842-.035,3.685.007,5.528-.024.563-.009.746.178.7.725a9.9,9.9,0,0,0,0,1.6c.048.577-.194.7-.727.7-1.865-.028-3.73,0-5.595-.02-.506-.006-.717.132-.7.671.031,1.221.025,2.443,0,3.663-.009.491.172.664.661.659,1.887-.018,3.775.008,5.662-.017.516-.007.731.144.7.679a15,15,0,0,0,0,1.731c.026.476-.175.612-.624.611-2.952-.012-5.906-.018-8.859,0-.577,0-.643-.27-.641-.736.012-2.886.006-5.772.006-8.659" transform="translate(-111.862 -19.631)" fill="#003635"/>
      <path id="Path_75" data-name="Path 75" d="M164.487,57.978l1.919,2.161c-1.123,1.642-4.909,3.548-8.952,2.716a9.677,9.677,0,0,1-2.029-18.31c3.615-1.643,8.479-.847,10.967,1.864-.614.671-1.222,1.368-1.879,2.013-.089.088-.484-.007-.64-.135a6.583,6.583,0,0,0-4.333-1.613,6.681,6.681,0,0,0-1.95,13.034,6.333,6.333,0,0,0,6.451-1.348c.115-.1.233-.2.447-.383" transform="translate(-66.588 -19.431)" fill="#003635"/>
      <path id="Path_76" data-name="Path 76" d="M284.815,19.349c-.936,0-1.819.018-2.7-.018-.137-.006-.309-.238-.382-.4a1.4,1.4,0,0,1-.019-.526q0-8.458,0-16.917c0-.934,0-.936.961-.936,1.532,0,3.065-.023,4.6.01A6.28,6.28,0,0,1,293.6,7.3a6.264,6.264,0,0,1-5.818,5.89c-.754.037-1.511.051-2.263.014-.548-.027-.683.195-.676.7.022,1.531.009,3.064.006,4.6,0,.259-.022.519-.037.853m.041-12.508c0,1,0,2,0,2.995,0,.328.067.579.472.553a24.9,24.9,0,0,0,2.776-.2,2.748,2.748,0,0,0,2.324-2.7,8.953,8.953,0,0,0-.006-1.262A2.745,2.745,0,0,0,288.174,3.6a26.312,26.312,0,0,0-2.705-.226c-.458-.04-.634.137-.622.6.026.953.008,1.907.008,2.861" transform="translate(-125.275 -0.241)" fill="#003635"/>
      <path id="Path_77" data-name="Path 77" d="M43.465.582a7.268,7.268,0,1,1-7.3,7.27,7.274,7.274,0,0,1,7.3-7.27m-.017,11.381A4.13,4.13,0,1,0,39.3,7.832a4.138,4.138,0,0,0,4.144,4.13" transform="translate(-16.083 -0.259)" fill="#003635"/>
      <path id="Path_78" data-name="Path 78" d="M315.482,44.17c1.2,0,2.283-.026,3.359.026.18.008.39.325.51.541,1.2,2.176,2.378,4.361,3.566,6.544.111.2.234.4.424.726.195-.317.325-.508.435-.711,1.187-2.182,2.381-4.361,3.544-6.555a.95.95,0,0,1,.987-.6c.925.034,1.851.01,2.907.01-.186.395-.3.674-.443.934-1.845,3.289-3.7,6.57-5.53,9.869a2.78,2.78,0,0,0-.327,1.253c-.033,2.02-.029,4.041-.006,6.061.006.516-.152.727-.681.7a14.062,14.062,0,0,0-1.731,0c-.57.037-.718-.21-.712-.742.023-2,.029-4-.007-5.995a2.928,2.928,0,0,0-.343-1.317c-1.835-3.32-3.7-6.62-5.559-9.929-.125-.223-.223-.46-.393-.816" transform="translate(-140.298 -19.632)" fill="#003635"/>
      <path id="Path_79" data-name="Path 79" d="M377.547,11.422c0-2.4-.014-4.8.011-7.194.005-.526-.166-.7-.685-.687-1.064.029-2.131-.008-3.2.014-.458.01-.642-.148-.62-.615.028-.6.022-1.2,0-1.8-.014-.414.115-.6.565-.6q5.462.018,10.924,0c.46,0,.64.163.621.624-.024.6-.02,1.2,0,1.8.013.434-.178.59-.6.584-1.043-.013-2.088.029-3.13-.013-.587-.023-.759.169-.756.755.021,4.707.012,9.414.011,14.121,0,.941,0,.941-.946.942-.51,0-1.024-.033-1.531.009-.538.044-.681-.167-.676-.682.022-2.42.01-4.84.009-7.26" transform="translate(-165.901 -0.242)" fill="#003635"/>
      <path id="Path_80" data-name="Path 80" d="M213.842,11.479c0-2.4-.019-4.8.013-7.193.008-.6-.187-.77-.761-.748-1.042.038-2.087-.007-3.13.018-.468.011-.632-.162-.611-.621.028-.6.024-1.2,0-1.8-.016-.422.127-.594.569-.593q5.462.017,10.924,0c.434,0,.594.173.581.6-.019.6-.024,1.2,0,1.8.02.47-.183.624-.632.615-.977-.019-1.954-.007-2.93-.006-.925,0-.928,0-.928.9q0,6.528,0,13.055c0,1.849,0,1.849-1.839,1.849-1.255,0-1.255,0-1.255-1.282V11.479" transform="translate(-93.1 -0.242)" fill="#003635"/>
      <path id="Path_81" data-name="Path 81" d="M245.21,19.342H239.5c-1.022,0-2.044-.023-3.064.009-.487.016-.692-.13-.662-.634s.006-1.021.006-1.531c0-5.263.011-10.526-.013-15.789,0-.651.144-.943.846-.873a13.138,13.138,0,0,0,1.731.008c.4-.013.57.142.555.544-.016.421,0,.844,0,1.266q0,6.563,0,13.124c0,.88.006.883.9.885,1.577,0,3.154.023,4.73-.011.566-.012.731.182.7.725-.041.725-.01,1.454-.01,2.277" transform="translate(-104.846 -0.229)" fill="#003635"/>
    </g>
  </g>
</svg>
