<svg xmlns="http://www.w3.org/2000/svg" xmlns:xlink="http://www.w3.org/1999/xlink" width="58" height="58" viewBox="0 0 58 58">
  <defs>
    <clipPath id="clip-path">
      <circle id="Ellipse_3" data-name="Ellipse 3" cx="29" cy="29" r="29" transform="translate(821 987)" fill="none" stroke="#707070" stroke-width="1"/>
    </clipPath>
    <clipPath id="clip-path-2">
      <path id="Path_82" data-name="Path 82" d="M2381.428,793c0,.571,3.857,12.714,3.857,12.714s-13,4-13.143,4.714-2.571,20.429-2.571,20.429l7.143,11,12.857-3.571,8.714-2,7,4.429s-7.714,10.143-10.143,10.286-22.857,8.714-27.857,2.429-17.286-28.143-17.428-35.857,3.572-18.857,7.714-20.429S2381.428,793,2381.428,793Z" transform="translate(-1959 -55)" fill="none" stroke="#707070" stroke-width="1"/>
    </clipPath>
  </defs>
  <g id="Mask_Group_5" data-name="Mask Group 5" transform="translate(-821 -987)" clip-path="url(#clip-path)">
    <g id="Group_44" data-name="Group 44" transform="translate(413.147 111)">
      <g id="Ellipse_1" data-name="Ellipse 1" transform="translate(411 879)" fill="none" stroke="#b4c967" stroke-width="1">
        <circle cx="26" cy="26" r="26" stroke="none"/>
        <circle cx="26" cy="26" r="25.5" fill="none"/>
      </g>
      <path id="Polygon_1" data-name="Polygon 1" d="M6.79,2.816a2,2,0,0,1,3.419,0l4.946,8.146A2,2,0,0,1,13.446,14H3.554a2,2,0,0,1-1.71-3.038Z" transform="translate(447 896) rotate(90)" fill="#b4c967"/>
      <g id="Mask_Group_3" data-name="Mask Group 3" transform="translate(12 137)" clip-path="url(#clip-path-2)">
        <g id="Ellipse_2" data-name="Ellipse 2" transform="translate(399 742)" fill="none" stroke="#b4c967" stroke-width="5">
          <circle cx="26" cy="26" r="26" stroke="none"/>
          <circle cx="26" cy="26" r="23.5" fill="none"/>
        </g>
      </g>
    </g>
  </g>
</svg>
